<svg xmlns="http://www.w3.org/2000/svg" viewBox="0 0 200 200">
	<path d="M76.253 150.57c-7.919 13.775-11.857 20.645-8.809 25.813 3.036 5.178 11.005 5.197 26.915 5.245l11.5.057c15.944.087 23.935.115 26.966-5.058 3.038-5.175-.93-12.076-8.906-25.91l-5.794-10.021c-8.04-13.88-12.069-20.827-18.1-20.853-6.024-.007-10.027 6.915-18.017 20.746zm55.905-4.568c7.974 13.825 11.94 20.719 17.95 20.683 6.008-.05 10.053-7.01 18.084-20.938l5.76-10.04c7.957-13.804 11.958-20.66 8.96-25.795-2.983-5.134-10.976-5.136-26.982-5.14l-11.586-.006c-16.043-.011-24.07-.018-27.056 5.185-2.997 5.214 1.035 12.16 9.077 26.036zm23.797-50.629c16.013.037 24.01.057 27.029-5.078 3.028-5.141-.952-12.03-8.96-25.887l-5.855-10.04c-8.18-13.87-12.284-20.79-18.305-20.829-6.016-.033-9.952 6.833-17.868 20.601l-5.753 9.98c-7.991 13.832-11.996 20.758-8.965 25.967 3.006 5.214 11.036 5.23 27.086 5.261zm-32.21-45.943c7.92-13.774 11.858-20.643 8.81-25.812-3.036-5.178-11.005-5.197-26.915-5.246l-11.5-.056c-15.944-.088-23.934-.115-26.966 5.058-3.039 5.175.93 12.077 8.906 25.91l5.793 10.02c8.041 13.88 12.07 20.827 18.1 20.854 6.025.007 10.028-6.915 18.019-20.747zM67.84 53.998C59.867 40.175 55.901 33.28 49.89 33.316c-6.007.05-10.053 7.01-18.082 20.938l-5.76 10.04c-7.958 13.804-11.958 20.66-8.96 25.794 2.982 5.135 10.976 5.136 26.982 5.14l11.585.007c16.043.011 24.069.018 27.057-5.184 2.996-5.215-1.035-12.16-9.079-26.037zm-23.796 50.63c-16.013-.038-24.01-.057-27.03 5.08-3.028 5.139.953 12.03 8.961 25.884l5.857 10.04c8.178 13.87 12.282 20.79 18.303 20.829 6.016.033 9.952-6.832 17.868-20.6l5.753-9.98c7.99-13.833 11.996-20.758 8.966-25.967-3.007-5.215-11.038-5.23-27.088-5.262z" />
	<style>
		path { fill: #000; }
		@media (prefers-color-scheme: dark) {
			path { fill: #FFF; }
		}
	</style>
</svg>
